{
  "accessors": [
    {
      "bufferView": 0,
      "componentType": 5126,
      "count": 3575,
      "type": "VEC2"
    },
    {
      "bufferView": 1,
      "componentType": 5126,
      "count": 3575,
      "type": "VEC3"
    },
    {
      "bufferView": 2,
      "componentType": 5126,
      "count": 3575,
      "type": "VEC4"
    },
    {
      "bufferView": 3,
      "componentType": 5126,
      "count": 3575,
      "type": "VEC3",
      "max": [
        0.009921154,
        0.00977163,
        0.0100762453
      ],
      "min": [
        -0.009921154,
        -0.00977163,
        -0.0100762453
      ]
    },
    {
      "bufferView": 4,
      "componentType": 5123,
      "count": 18108,
      "type": "SCALAR"
    },
    {
      "bufferView": 5,
      "componentType": 5126,
      "count": 875,
      "type": "VEC2"
    },
    {
      "bufferView": 6,
      "componentType": 5126,
      "count": 875,
      "type": "VEC3"
    },
    {
      "bufferView": 7,
      "componentType": 5126,
      "count": 875,
      "type": "VEC4"
    },
    {
      "bufferView": 8,
      "componentType": 5126,
      "count": 875,
      "type": "VEC3",
      "max": [
        0.003958638,
        0.00395863829,
        0.00395863736
      ],
      "min": [
        -0.003958638,
        -0.00395863829,
        -0.00395863736
      ]
    },
    {
      "bufferView": 9,
      "componentType": 5123,
      "count": 3420,
      "type": "SCALAR"
    },
    {
      "bufferView": 10,
      "componentType": 5126,
      "count": 2252,
      "type": "VEC2"
    },
    {
      "bufferView": 11,
      "componentType": 5126,
      "count": 2252,
      "type": "VEC3"
    },
    {
      "bufferView": 12,
      "componentType": 5126,
      "count": 2252,
      "type": "VEC4"
    },
    {
      "bufferView": 13,
      "componentType": 5126,
      "count": 2252,
      "type": "VEC3",
      "max": [
        0.03458703,
        0.023930205,
        0.00350000383
      ],
      "min": [
        -0.03458703,
        -0.023930205,
        -0.00350000383
      ]
    },
    {
      "bufferView": 14,
      "componentType": 5123,
      "count": 11064,
      "type": "SCALAR"
    },
    {
      "bufferView": 15,
      "componentType": 5126,
      "count": 1820,
      "type": "VEC2"
    },
    {
      "bufferView": 16,
      "componentType": 5126,
      "count": 1820,
      "type": "VEC3"
    },
    {
      "bufferView": 17,
      "componentType": 5126,
      "count": 1820,
      "type": "VEC4"
    },
    {
      "bufferView": 18,
      "componentType": 5126,
      "count": 1820,
      "type": "VEC3",
      "max": [
        0.0336825922,
        0.02393022,
        0.00350000663
      ],
      "min": [
        -0.0336825848,
        -0.02393022,
        -0.00350000081
      ]
    },
    {
      "bufferView": 19,
      "componentType": 5123,
      "count": 8976,
      "type": "SCALAR"
    },
    {
      "bufferView": 20,
      "componentType": 5126,
      "count": 1708,
      "type": "VEC2"
    },
    {
      "bufferView": 21,
      "componentType": 5126,
      "count": 1708,
      "type": "VEC3"
    },
    {
      "bufferView": 22,
      "componentType": 5126,
      "count": 1708,
      "type": "VEC4"
    },
    {
      "bufferView": 23,
      "componentType": 5126,
      "count": 1708,
      "type": "VEC3",
      "max": [
        0.03192059,
        0.0239302013,
        0.00350000663
      ],
      "min": [
        -0.03192056,
        -0.02393023,
        -0.00350000081
      ]
    },
    {
      "bufferView": 24,
      "componentType": 5123,
      "count": 8496,
      "type": "SCALAR"
    }
  ],
  "asset": {
    "generator": "glTF Tools for Unity",
    "version": "2.0"
  },
  "bufferViews": [
    {
      "buffer": 0,
      "byteLength": 28600
    },
    {
      "buffer": 0,
      "byteOffset": 28600,
      "byteLength": 42900
    },
    {
      "buffer": 0,
      "byteOffset": 71500,
      "byteLength": 57200
    },
    {
      "buffer": 0,
      "byteOffset": 128700,
      "byteLength": 42900
    },
    {
      "buffer": 0,
      "byteOffset": 171600,
      "byteLength": 36216
    },
    {
      "buffer": 0,
      "byteOffset": 207816,
      "byteLength": 7000
    },
    {
      "buffer": 0,
      "byteOffset": 214816,
      "byteLength": 10500
    },
    {
      "buffer": 0,
      "byteOffset": 225316,
      "byteLength": 14000
    },
    {
      "buffer": 0,
      "byteOffset": 239316,
      "byteLength": 10500
    },
    {
      "buffer": 0,
      "byteOffset": 249816,
      "byteLength": 6840
    },
    {
      "buffer": 0,
      "byteOffset": 256656,
      "byteLength": 18016
    },
    {
      "buffer": 0,
      "byteOffset": 274672,
      "byteLength": 27024
    },
    {
      "buffer": 0,
      "byteOffset": 301696,
      "byteLength": 36032
    },
    {
      "buffer": 0,
      "byteOffset": 337728,
      "byteLength": 27024
    },
    {
      "buffer": 0,
      "byteOffset": 364752,
      "byteLength": 22128
    },
    {
      "buffer": 0,
      "byteOffset": 386880,
      "byteLength": 14560
    },
    {
      "buffer": 0,
      "byteOffset": 401440,
      "byteLength": 21840
    },
    {
      "buffer": 0,
      "byteOffset": 423280,
      "byteLength": 29120
    },
    {
      "buffer": 0,
      "byteOffset": 452400,
      "byteLength": 21840
    },
    {
      "buffer": 0,
      "byteOffset": 474240,
      "byteLength": 17952
    },
    {
      "buffer": 0,
      "byteOffset": 492192,
      "byteLength": 13664
    },
    {
      "buffer": 0,
      "byteOffset": 505856,
      "byteLength": 20496
    },
    {
      "buffer": 0,
      "byteOffset": 526352,
      "byteLength": 27328
    },
    {
      "buffer": 0,
      "byteOffset": 553680,
      "byteLength": 20496
    },
    {
      "buffer": 0,
      "byteOffset": 574176,
      "byteLength": 16992
    }
  ],
  "buffers": [
    {
      "uri": "BoomBoxWithAxes.bin",
      "byteLength": 591168
    }
  ],
  "images": [
    {
      "uri": "BoomBoxWithAxes_baseColor.jpg"
    },
    {
      "uri": "BoomBoxWithAxes_roughnessMetallic.jpg"
    },
    {
      "uri": "BoomBoxWithAxes_normal.png"
    },
    {
      "uri": "BoomBoxWithAxes_emissive.jpg"
    },
    {
      "uri": "BoomBoxWithAxes_baseColor1.png"
    }
  ],
  "meshes": [
    {
      "primitives": [
        {
          "attributes": {
            "TEXCOORD_0": 0,
            "NORMAL": 1,
            "TANGENT": 2,
            "POSITION": 3
          },
          "indices": 4,
          "material": 0
        }
      ],
      "name": "BoomBox"
    },
    {
      "primitives": [
        {
          "attributes": {
            "TEXCOORD_0": 5,
            "NORMAL": 6,
            "TANGENT": 7,
            "POSITION": 8
          },
          "indices": 9,
          "material": 1
        }
      ],
      "name": "CoordinateSystem"
    },
    {
      "primitives": [
        {
          "attributes": {
            "TEXCOORD_0": 10,
            "NORMAL": 11,
            "TANGENT": 12,
            "POSITION": 13
          },
          "indices": 14,
          "material": 1
        }
      ],
      "name": "X_axis"
    },
    {
      "primitives": [
        {
          "attributes": {
            "TEXCOORD_0": 15,
            "NORMAL": 16,
            "TANGENT": 17,
            "POSITION": 18
          },
          "indices": 19,
          "material": 1
        }
      ],
      "name": "Y_axis"
    },
    {
      "primitives": [
        {
          "attributes": {
            "TEXCOORD_0": 20,
            "NORMAL": 21,
            "TANGENT": 22,
            "POSITION": 23
          },
          "indices": 24,
          "material": 1
        }
      ],
      "name": "Z_axis"
    }
  ],
  "materials": [
    {
      "pbrMetallicRoughness": {
        "baseColorTexture": {
          "index": 0
        },
        "metallicRoughnessTexture": {
          "index": 1
        }
      },
      "normalTexture": {
        "index": 2
      },
      "emissiveFactor": [
        1.0,
        1.0,
        1.0
      ],
      "emissiveTexture": {
        "index": 3
      },
      "name": "M_BoomBox"
    },
    {
      "pbrMetallicRoughness": {
        "baseColorTexture": {
          "index": 4
        },
        "metallicFactor": 0.0,
        "roughnessFactor": 0.735
      },
      "name": "M_Coordinates"
    }
  ],
  "nodes": [
    {
      "mesh": 0,
      "translation": [
        -1.490116E-09,
        0.002062733,
        -0.000114740425
      ],
      "name": "BoomBox"
    },
    {
      "mesh": 1,
      "translation": [
        -0.00319974,
        0.0175339244,
        -0.00319973961
      ],
      "name": "CoordinateSystem"
    },
    {
      "mesh": 2,
      "scale": [
        0.06,
        0.06,
        0.06
      ],
      "translation": [
        -0.010767879,
        0.0143326828,
        -5.5000196E-06
      ],
      "name": "X_axis"
    },
    {
      "mesh": 3,
      "scale": [
        0.06,
        0.06,
        0.06
      ],
      "translation": [
        0.0007127809,
        0.024210168,
        2.2172928E-07
      ],
      "name": "Y_axis"
    },
    {
      "mesh": 4,
      "scale": [
        0.06,
        0.06,
        0.06
      ],
      "translation": [
        0.000875492056,
        0.014333982,
        -0.009313311
      ],
      "name": "Z_axis"
    },
    {
      "children": [
        0,
        1,
        2,
        3,
        4
      ],
      "rotation": [
        0.0,
        1.0,
        0.0,
        0.0
      ],
      "name": "BoomBox_Coordinates"
    }
  ],
  "scene": 0,
  "scenes": [
    {
      "nodes": [
        5
      ]
    }
  ],
  "textures": [
    {
      "source": 0
    },
    {
      "source": 1
    },
    {
      "source": 2
    },
    {
      "source": 3
    },
    {
      "source": 4
    }
  ]
}